# xmcd
#
# Track frame offsets:
#	150
#	14072
#	28266
#	42717
#	52557
#	69042
#	83674
#	104746
#	119448
#	136634
#	148069
#	161096
#	172096
#	186658
#	204589
#	222585
#
# Disc length: 3005 seconds
#
# Revision: 1
# Processed by: cddbd v1.5.2PL0 Copyright (c) Steve Scherf et al.
# Submitted via: EasyCDDAExtractor 11.5.0.1
#
DISCID=f40bbb10
DTITLE=The Gibson Brothers - Red Letter Day
DYEAR=2005
DGENRE=Bluegrass
TTITLE0=Lonesome Number One
TTITLE1=Walking With Joanna
TTITLE2=One Raindrop
TTITLE3=Red Letter Day
TTITLE4=The Barn Song
TTITLE5=I Got A Woman
TTITLE6=We Won't Dance Again
TTITLE7=Sam Smith
TTITLE8=What A Ways We've Come
TTITLE9=As Long As There's You
TTITLE10=The Prisoner's Song
TTITLE11=If I Were You
TTITLE12=One More Try
TTITLE13=Twenty-One Years
TTITLE14=It's All Over Now
TTITLE15=Hidden Track
EXTD=
EXTT0=
EXTT1=
EXTT2=
EXTT3=
EXTT4=
EXTT5=
EXTT6=
EXTT7=
EXTT8=
EXTT9=
EXTT10=
EXTT11=
EXTT12=
EXTT13=
EXTT14=
EXTT15=
PLAYORDER=
